<?xml version="1.0" standalone="no"?>
<!DOCTYPE svg PUBLIC "-//W3C//DTD SVG 20010904//EN"
 "http://www.w3.org/TR/2001/REC-SVG-20010904/DTD/svg10.dtd">
<svg version="1.0" xmlns="http://www.w3.org/2000/svg"
 width="286.000000pt" height="176.000000pt" viewBox="0 0 286.000000 176.000000"
 preserveAspectRatio="xMidYMid meet">

<g transform="translate(0.000000,176.000000) scale(0.100000,-0.100000)"
fill="#000000" stroke="none">
<path d="M910 1175 l-34 -35 60 -63 c33 -34 156 -164 273 -289 118 -126 217
-228 221 -228 4 0 72 69 151 153 187 200 281 300 347 368 l54 57 -33 36 -34
37 -238 -255 c-132 -141 -242 -256 -247 -256 -4 0 -99 98 -210 218 -112 119
-220 234 -239 255 l-37 37 -34 -35z"/>
</g>
</svg>
